# xmcd
#
# Track frame offsets:
# 150
# 16020
# 37697
# 58106
# 76709
# 96613
# 115004
# 134118
# 157662
# 177337
# 196583
#
# Disc length: 2952 seconds
#
# Revision: 0
# Processed by: cddbd v1.5.2PL0 Copyright (c) Steve Scherf et al.
# Submitted via: Axialis_AX_CDPlayer 2.6
#
DISCID=7c0b860b
DTITLE=Kenny Chesney - Just Who I Am - Poets And Pirates
DYEAR=1900
DGENRE=
TTITLE0=Never Wanted Nothing More
TTITLE1=Don't Blink
TTITLE2=Shiftwork
TTITLE3=Just Not Today
TTITLE4=Wife And Kids
TTITLE5=Got A Little Crazy
TTITLE6=Better As A Memory
TTITLE7=Dancin' For The Groceries
TTITLE8=Wild Ride
TTITLE9=Scare Me
TTITLE10=Demons
EXTD=www.kennychesney.com
EXTT0=
EXTT1=
EXTT2=With George Strait
EXTT3=
EXTT4=
EXTT5=
EXTT6=
EXTT7=
EXTT8=With Joe Walsh
EXTT9=
EXTT10=
PLAYORDER=
